<mxfile host="Electron" modified="2023-09-26T18:29:22.509Z" agent="Mozilla/5.0 (Windows NT 10.0; Win64; x64) AppleWebKit/537.36 (KHTML, like Gecko) draw.io/21.8.2 Chrome/114.0.5735.289 Electron/25.8.1 Safari/537.36" etag="m2lGHXUVBmr-Mvhnz6oT" version="21.8.2" type="device">
  <diagram name="Страница — 1" id="wlW6_qBRy63bHZiJKuNg">
    <mxGraphModel dx="846" dy="1346" grid="1" gridSize="10" guides="1" tooltips="1" connect="1" arrows="1" fold="1" page="1" pageScale="1" pageWidth="1169" pageHeight="827" math="0" shadow="0">
      <root>
        <mxCell id="0" />
        <mxCell id="1" parent="0" />
        <mxCell id="TLv6IA51qa2DhJwGQlFt-1" value="" style="swimlane;startSize=0;strokeWidth=4;fillColor=#D836D8;fontColor=#ffffff;strokeColor=#D836D8;" vertex="1" parent="1">
          <mxGeometry x="270" y="100" width="540" height="580" as="geometry">
            <mxRectangle x="80" y="140" width="50" height="40" as="alternateBounds" />
          </mxGeometry>
        </mxCell>
        <mxCell id="TLv6IA51qa2DhJwGQlFt-46" style="edgeStyle=orthogonalEdgeStyle;rounded=0;orthogonalLoop=1;jettySize=auto;html=1;exitX=1;exitY=1;exitDx=0;exitDy=0;entryX=0.5;entryY=0;entryDx=0;entryDy=0;dashed=1;" edge="1" parent="TLv6IA51qa2DhJwGQlFt-1" source="TLv6IA51qa2DhJwGQlFt-4" target="TLv6IA51qa2DhJwGQlFt-6">
          <mxGeometry relative="1" as="geometry" />
        </mxCell>
        <mxCell id="TLv6IA51qa2DhJwGQlFt-4" value="&lt;font style=&quot;font-size: 14px;&quot;&gt;Отримати план&lt;/font&gt;" style="ellipse;whiteSpace=wrap;html=1;fillColor=#1D99B8;fontColor=#ffffff;strokeColor=#1D99B8;gradientColor=none;" vertex="1" parent="TLv6IA51qa2DhJwGQlFt-1">
          <mxGeometry x="70" y="40" width="120" height="80" as="geometry" />
        </mxCell>
        <mxCell id="TLv6IA51qa2DhJwGQlFt-5" value="&lt;font style=&quot;font-size: 14px;&quot;&gt;Створити Оnline-заявку&lt;/font&gt;" style="ellipse;whiteSpace=wrap;html=1;fillColor=#1D99B8;fontColor=#ffffff;strokeColor=#1D99B8;" vertex="1" parent="TLv6IA51qa2DhJwGQlFt-1">
          <mxGeometry x="30" y="143" width="120" height="80" as="geometry" />
        </mxCell>
        <mxCell id="TLv6IA51qa2DhJwGQlFt-6" value="&lt;font style=&quot;font-size: 14px;&quot;&gt;Авторизувати користувача&lt;/font&gt;" style="ellipse;whiteSpace=wrap;html=1;fillColor=#1D99B8;fontColor=#ffffff;strokeColor=#1D99B8;" vertex="1" parent="TLv6IA51qa2DhJwGQlFt-1">
          <mxGeometry x="260" y="210" width="120" height="80" as="geometry" />
        </mxCell>
        <mxCell id="TLv6IA51qa2DhJwGQlFt-42" style="edgeStyle=orthogonalEdgeStyle;rounded=0;orthogonalLoop=1;jettySize=auto;html=1;exitX=1;exitY=0.5;exitDx=0;exitDy=0;entryX=0.083;entryY=0.788;entryDx=0;entryDy=0;entryPerimeter=0;dashed=1;" edge="1" parent="TLv6IA51qa2DhJwGQlFt-1" source="TLv6IA51qa2DhJwGQlFt-7" target="TLv6IA51qa2DhJwGQlFt-6">
          <mxGeometry relative="1" as="geometry">
            <Array as="points">
              <mxPoint x="270" y="330" />
            </Array>
          </mxGeometry>
        </mxCell>
        <mxCell id="TLv6IA51qa2DhJwGQlFt-7" value="&lt;font style=&quot;font-size: 14px;&quot;&gt;Об&#39;єднати &lt;br&gt;Оnline-заявку&lt;/font&gt;" style="ellipse;whiteSpace=wrap;html=1;fillColor=#1D99B8;fontColor=#ffffff;strokeColor=#1D99B8;" vertex="1" parent="TLv6IA51qa2DhJwGQlFt-1">
          <mxGeometry x="90" y="290" width="120" height="80" as="geometry" />
        </mxCell>
        <mxCell id="TLv6IA51qa2DhJwGQlFt-8" value="&lt;span style=&quot;font-size: 14px;&quot;&gt;Сплатити &lt;br&gt;рахунок за послуги&lt;/span&gt;" style="ellipse;whiteSpace=wrap;html=1;fillColor=#1D99B8;fontColor=#ffffff;strokeColor=#1D99B8;" vertex="1" parent="TLv6IA51qa2DhJwGQlFt-1">
          <mxGeometry x="90" y="390" width="120" height="80" as="geometry" />
        </mxCell>
        <mxCell id="TLv6IA51qa2DhJwGQlFt-35" style="edgeStyle=orthogonalEdgeStyle;rounded=0;orthogonalLoop=1;jettySize=auto;html=1;exitX=1;exitY=0.5;exitDx=0;exitDy=0;entryX=0.5;entryY=1;entryDx=0;entryDy=0;dashed=1;" edge="1" parent="TLv6IA51qa2DhJwGQlFt-1" source="TLv6IA51qa2DhJwGQlFt-9" target="TLv6IA51qa2DhJwGQlFt-6">
          <mxGeometry relative="1" as="geometry">
            <Array as="points">
              <mxPoint x="210" y="520" />
              <mxPoint x="320" y="520" />
            </Array>
          </mxGeometry>
        </mxCell>
        <mxCell id="TLv6IA51qa2DhJwGQlFt-36" value="&lt;font style=&quot;font-size: 12px;&quot;&gt;&amp;lt;&amp;lt;include&amp;gt;&amp;gt;&lt;/font&gt;" style="edgeLabel;html=1;align=center;verticalAlign=middle;resizable=0;points=[];" vertex="1" connectable="0" parent="TLv6IA51qa2DhJwGQlFt-35">
          <mxGeometry x="0.5886" y="2" relative="1" as="geometry">
            <mxPoint x="-68" y="148" as="offset" />
          </mxGeometry>
        </mxCell>
        <mxCell id="TLv6IA51qa2DhJwGQlFt-9" value="&lt;span style=&quot;font-size: 14px;&quot;&gt;Виконати &lt;br&gt;Online-заявку&lt;/span&gt;" style="ellipse;whiteSpace=wrap;html=1;fillColor=#1D99B8;fontColor=#ffffff;strokeColor=#1D99B8;" vertex="1" parent="TLv6IA51qa2DhJwGQlFt-1">
          <mxGeometry x="90" y="490" width="120" height="80" as="geometry" />
        </mxCell>
        <mxCell id="TLv6IA51qa2DhJwGQlFt-10" value="&lt;font style=&quot;font-size: 14px;&quot;&gt;Е-сплата&lt;/font&gt;" style="ellipse;whiteSpace=wrap;html=1;fillColor=#1D99B8;fontColor=#ffffff;strokeColor=#1D99B8;" vertex="1" parent="TLv6IA51qa2DhJwGQlFt-1">
          <mxGeometry x="390" y="320" width="120" height="80" as="geometry" />
        </mxCell>
        <mxCell id="TLv6IA51qa2DhJwGQlFt-37" style="edgeStyle=orthogonalEdgeStyle;rounded=0;orthogonalLoop=1;jettySize=auto;html=1;exitX=0;exitY=0.5;exitDx=0;exitDy=0;entryX=0.947;entryY=0.304;entryDx=0;entryDy=0;entryPerimeter=0;dashed=1;" edge="1" parent="TLv6IA51qa2DhJwGQlFt-1" source="TLv6IA51qa2DhJwGQlFt-10" target="TLv6IA51qa2DhJwGQlFt-8">
          <mxGeometry relative="1" as="geometry" />
        </mxCell>
        <mxCell id="TLv6IA51qa2DhJwGQlFt-39" value="&lt;font style=&quot;font-size: 12px;&quot;&gt;&amp;lt;&amp;lt;include&amp;gt;&amp;gt;&lt;/font&gt;" style="edgeLabel;html=1;align=center;verticalAlign=middle;resizable=0;points=[];" vertex="1" connectable="0" parent="TLv6IA51qa2DhJwGQlFt-1">
          <mxGeometry x="360.00067048782375" y="380.00414325079134" as="geometry">
            <mxPoint x="-6" y="-30" as="offset" />
          </mxGeometry>
        </mxCell>
        <mxCell id="TLv6IA51qa2DhJwGQlFt-40" style="edgeStyle=orthogonalEdgeStyle;rounded=0;orthogonalLoop=1;jettySize=auto;html=1;exitX=1;exitY=0;exitDx=0;exitDy=0;entryX=0.225;entryY=0.963;entryDx=0;entryDy=0;entryPerimeter=0;dashed=1;" edge="1" parent="TLv6IA51qa2DhJwGQlFt-1" source="TLv6IA51qa2DhJwGQlFt-8" target="TLv6IA51qa2DhJwGQlFt-6">
          <mxGeometry relative="1" as="geometry" />
        </mxCell>
        <mxCell id="TLv6IA51qa2DhJwGQlFt-41" value="&lt;font style=&quot;font-size: 12px;&quot;&gt;&amp;lt;&amp;lt;include&amp;gt;&amp;gt;&lt;/font&gt;" style="edgeLabel;html=1;align=center;verticalAlign=middle;resizable=0;points=[];" vertex="1" connectable="0" parent="TLv6IA51qa2DhJwGQlFt-1">
          <mxGeometry x="220" y="390" as="geometry" />
        </mxCell>
        <mxCell id="TLv6IA51qa2DhJwGQlFt-43" value="&lt;font style=&quot;font-size: 12px;&quot;&gt;&amp;lt;&amp;lt;include&amp;gt;&amp;gt;&lt;/font&gt;" style="edgeLabel;html=1;align=center;verticalAlign=middle;resizable=0;points=[];" vertex="1" connectable="0" parent="TLv6IA51qa2DhJwGQlFt-1">
          <mxGeometry x="240" y="314" as="geometry" />
        </mxCell>
        <mxCell id="TLv6IA51qa2DhJwGQlFt-44" style="edgeStyle=orthogonalEdgeStyle;rounded=0;orthogonalLoop=1;jettySize=auto;html=1;exitX=1;exitY=0.5;exitDx=0;exitDy=0;entryX=0.033;entryY=0.242;entryDx=0;entryDy=0;entryPerimeter=0;dashed=1;" edge="1" parent="TLv6IA51qa2DhJwGQlFt-1" source="TLv6IA51qa2DhJwGQlFt-5" target="TLv6IA51qa2DhJwGQlFt-6">
          <mxGeometry relative="1" as="geometry" />
        </mxCell>
        <mxCell id="TLv6IA51qa2DhJwGQlFt-45" value="&lt;font style=&quot;font-size: 12px;&quot;&gt;&amp;lt;&amp;lt;include&amp;gt;&amp;gt;&lt;/font&gt;" style="edgeLabel;html=1;align=center;verticalAlign=middle;resizable=0;points=[];" vertex="1" connectable="0" parent="TLv6IA51qa2DhJwGQlFt-1">
          <mxGeometry x="190" y="169.99846153846164" as="geometry" />
        </mxCell>
        <mxCell id="TLv6IA51qa2DhJwGQlFt-47" value="&lt;font style=&quot;font-size: 12px;&quot;&gt;&amp;lt;&amp;lt;include&amp;gt;&amp;gt;&lt;/font&gt;" style="edgeLabel;html=1;align=center;verticalAlign=middle;resizable=0;points=[];" vertex="1" connectable="0" parent="TLv6IA51qa2DhJwGQlFt-1">
          <mxGeometry x="210" y="119.99846153846164" as="geometry" />
        </mxCell>
        <mxCell id="TLv6IA51qa2DhJwGQlFt-11" value="&lt;font style=&quot;font-size: 14px;&quot;&gt;Користувач&lt;/font&gt;" style="shape=umlActor;verticalLabelPosition=bottom;verticalAlign=top;html=1;outlineConnect=0;" vertex="1" parent="1">
          <mxGeometry x="50" y="310" width="40" height="80" as="geometry" />
        </mxCell>
        <mxCell id="TLv6IA51qa2DhJwGQlFt-17" value="&lt;font style=&quot;font-size: 14px;&quot;&gt;Співробітник&lt;br&gt;&amp;nbsp;метеоцентру&lt;/font&gt;" style="shape=umlActor;verticalLabelPosition=bottom;verticalAlign=top;html=1;outlineConnect=0;fontSize=14;" vertex="1" parent="1">
          <mxGeometry x="1030" y="530" width="40" height="80" as="geometry" />
        </mxCell>
        <mxCell id="TLv6IA51qa2DhJwGQlFt-18" value="&lt;font style=&quot;font-size: 14px;&quot;&gt;Метеорологи&lt;/font&gt;" style="shape=umlActor;verticalLabelPosition=bottom;verticalAlign=top;html=1;outlineConnect=0;" vertex="1" parent="1">
          <mxGeometry x="180" y="180" width="40" height="80" as="geometry" />
        </mxCell>
        <mxCell id="TLv6IA51qa2DhJwGQlFt-19" value="&lt;font style=&quot;font-size: 14px;&quot;&gt;Адміністрація&lt;br&gt;метеоцентру&lt;br&gt;&lt;/font&gt;" style="shape=umlActor;verticalLabelPosition=bottom;verticalAlign=top;html=1;outlineConnect=0;" vertex="1" parent="1">
          <mxGeometry x="180" y="480" width="40" height="80" as="geometry" />
        </mxCell>
        <mxCell id="TLv6IA51qa2DhJwGQlFt-21" value="Сервіс Е-оплата" style="shape=umlActor;verticalLabelPosition=bottom;verticalAlign=top;html=1;outlineConnect=0;fontSize=14;" vertex="1" parent="1">
          <mxGeometry x="880" y="260" width="40" height="80" as="geometry" />
        </mxCell>
        <mxCell id="TLv6IA51qa2DhJwGQlFt-23" value="" style="endArrow=classic;html=1;rounded=0;" edge="1" parent="1">
          <mxGeometry width="50" height="50" relative="1" as="geometry">
            <mxPoint x="1050" y="670" as="sourcePoint" />
            <mxPoint x="60" y="420" as="targetPoint" />
            <Array as="points">
              <mxPoint x="1050" y="650" />
              <mxPoint x="1050" y="710" />
              <mxPoint x="60" y="710" />
            </Array>
          </mxGeometry>
        </mxCell>
        <mxCell id="TLv6IA51qa2DhJwGQlFt-25" value="" style="shape=flexArrow;endArrow=classic;html=1;rounded=0;fillColor=default;" edge="1" parent="1">
          <mxGeometry width="50" height="50" relative="1" as="geometry">
            <mxPoint x="60" y="470" as="sourcePoint" />
            <mxPoint x="60" y="420" as="targetPoint" />
          </mxGeometry>
        </mxCell>
        <mxCell id="TLv6IA51qa2DhJwGQlFt-26" value="" style="endArrow=classic;html=1;rounded=0;entryX=1;entryY=0.5;entryDx=0;entryDy=0;" edge="1" parent="1" target="TLv6IA51qa2DhJwGQlFt-4">
          <mxGeometry width="50" height="50" relative="1" as="geometry">
            <mxPoint x="1050" y="520" as="sourcePoint" />
            <mxPoint x="1050" y="160" as="targetPoint" />
            <Array as="points">
              <mxPoint x="1050" y="180" />
            </Array>
          </mxGeometry>
        </mxCell>
        <mxCell id="TLv6IA51qa2DhJwGQlFt-27" value="" style="endArrow=none;html=1;rounded=0;entryX=0;entryY=0.5;entryDx=0;entryDy=0;" edge="1" parent="1" target="TLv6IA51qa2DhJwGQlFt-7">
          <mxGeometry width="50" height="50" relative="1" as="geometry">
            <mxPoint x="230" y="520" as="sourcePoint" />
            <mxPoint x="510" y="620" as="targetPoint" />
          </mxGeometry>
        </mxCell>
        <mxCell id="TLv6IA51qa2DhJwGQlFt-28" value="" style="endArrow=none;html=1;rounded=0;entryX=0;entryY=0.5;entryDx=0;entryDy=0;" edge="1" parent="1" target="TLv6IA51qa2DhJwGQlFt-8">
          <mxGeometry width="50" height="50" relative="1" as="geometry">
            <mxPoint x="230" y="530" as="sourcePoint" />
            <mxPoint x="370" y="440" as="targetPoint" />
          </mxGeometry>
        </mxCell>
        <mxCell id="TLv6IA51qa2DhJwGQlFt-29" value="" style="endArrow=none;html=1;rounded=0;entryX=0;entryY=0.5;entryDx=0;entryDy=0;" edge="1" parent="1" target="TLv6IA51qa2DhJwGQlFt-9">
          <mxGeometry width="50" height="50" relative="1" as="geometry">
            <mxPoint x="230" y="540" as="sourcePoint" />
            <mxPoint x="370" y="540" as="targetPoint" />
          </mxGeometry>
        </mxCell>
        <mxCell id="TLv6IA51qa2DhJwGQlFt-30" style="edgeStyle=orthogonalEdgeStyle;rounded=0;orthogonalLoop=1;jettySize=auto;html=1;exitX=1;exitY=0.5;exitDx=0;exitDy=0;" edge="1" parent="1" source="TLv6IA51qa2DhJwGQlFt-8">
          <mxGeometry relative="1" as="geometry">
            <mxPoint x="1020" y="557" as="targetPoint" />
          </mxGeometry>
        </mxCell>
        <mxCell id="TLv6IA51qa2DhJwGQlFt-31" value="" style="endArrow=classic;html=1;rounded=0;entryX=1;entryY=0.5;entryDx=0;entryDy=0;" edge="1" parent="1" target="TLv6IA51qa2DhJwGQlFt-9">
          <mxGeometry width="50" height="50" relative="1" as="geometry">
            <mxPoint x="1020" y="590" as="sourcePoint" />
            <mxPoint x="760" y="620" as="targetPoint" />
            <Array as="points">
              <mxPoint x="710" y="590" />
              <mxPoint x="710" y="630" />
            </Array>
          </mxGeometry>
        </mxCell>
        <mxCell id="TLv6IA51qa2DhJwGQlFt-32" value="" style="endArrow=none;html=1;rounded=0;exitX=1;exitY=0;exitDx=0;exitDy=0;" edge="1" parent="1" source="TLv6IA51qa2DhJwGQlFt-10">
          <mxGeometry width="50" height="50" relative="1" as="geometry">
            <mxPoint x="710" y="670" as="sourcePoint" />
            <mxPoint x="870" y="310" as="targetPoint" />
          </mxGeometry>
        </mxCell>
        <mxCell id="TLv6IA51qa2DhJwGQlFt-33" value="" style="endArrow=none;html=1;rounded=0;entryX=0;entryY=0.5;entryDx=0;entryDy=0;" edge="1" parent="1" target="TLv6IA51qa2DhJwGQlFt-6">
          <mxGeometry width="50" height="50" relative="1" as="geometry">
            <mxPoint x="90" y="350" as="sourcePoint" />
            <mxPoint x="570" y="620" as="targetPoint" />
          </mxGeometry>
        </mxCell>
        <mxCell id="TLv6IA51qa2DhJwGQlFt-34" style="edgeStyle=orthogonalEdgeStyle;rounded=0;orthogonalLoop=1;jettySize=auto;html=1;exitX=0;exitY=0.5;exitDx=0;exitDy=0;" edge="1" parent="1" source="TLv6IA51qa2DhJwGQlFt-4" target="TLv6IA51qa2DhJwGQlFt-18">
          <mxGeometry relative="1" as="geometry" />
        </mxCell>
        <mxCell id="TLv6IA51qa2DhJwGQlFt-48" value="" style="endArrow=classic;html=1;rounded=0;entryX=0;entryY=0.5;entryDx=0;entryDy=0;" edge="1" parent="1" target="TLv6IA51qa2DhJwGQlFt-5">
          <mxGeometry width="50" height="50" relative="1" as="geometry">
            <mxPoint x="100" y="340" as="sourcePoint" />
            <mxPoint x="150" y="290" as="targetPoint" />
          </mxGeometry>
        </mxCell>
        <mxCell id="TLv6IA51qa2DhJwGQlFt-49" value="" style="endArrow=none;html=1;rounded=0;" edge="1" parent="1">
          <mxGeometry width="50" height="50" relative="1" as="geometry">
            <mxPoint x="110" y="420" as="sourcePoint" />
            <mxPoint x="180" y="520" as="targetPoint" />
          </mxGeometry>
        </mxCell>
        <mxCell id="TLv6IA51qa2DhJwGQlFt-50" value="" style="shape=flexArrow;endArrow=classic;html=1;rounded=0;fillColor=default;" edge="1" parent="1">
          <mxGeometry width="50" height="50" relative="1" as="geometry">
            <mxPoint x="140" y="460" as="sourcePoint" />
            <mxPoint x="110" y="420" as="targetPoint" />
          </mxGeometry>
        </mxCell>
        <mxCell id="TLv6IA51qa2DhJwGQlFt-51" value="" style="endArrow=none;html=1;rounded=0;" edge="1" parent="1">
          <mxGeometry width="50" height="50" relative="1" as="geometry">
            <mxPoint x="100" y="320" as="sourcePoint" />
            <mxPoint x="182" y="223" as="targetPoint" />
          </mxGeometry>
        </mxCell>
        <mxCell id="TLv6IA51qa2DhJwGQlFt-52" value="" style="shape=flexArrow;endArrow=classic;html=1;rounded=0;fillColor=default;" edge="1" parent="1">
          <mxGeometry width="50" height="50" relative="1" as="geometry">
            <mxPoint x="126" y="287" as="sourcePoint" />
            <mxPoint x="96" y="327" as="targetPoint" />
          </mxGeometry>
        </mxCell>
      </root>
    </mxGraphModel>
  </diagram>
</mxfile>
